<?xml version="1.0" encoding="UTF-8"?>
<svg width="512" height="512" viewBox="0 0 512 512" fill="none" xmlns="http://www.w3.org/2000/svg">
  <!-- Gradient Background -->
  <defs>
    <linearGradient id="grad1" x1="0%" y1="0%" x2="100%" y2="100%">
      <stop offset="0%" style="stop-color:#6366f1;stop-opacity:1" />
      <stop offset="100%" style="stop-color:#4f46e5;stop-opacity:1" />
    </linearGradient>
    <filter id="shadow" x="-20%" y="-20%" width="140%" height="140%">
      <feDropShadow dx="0" dy="4" stdDeviation="10" flood-color="#4f46e5" flood-opacity="0.3"/>
    </filter>
  </defs>
  
  <!-- Main Circle -->
  <circle cx="256" cy="256" r="240" fill="url(#grad1)" filter="url(#shadow)"/>
  
  <!-- Hard Drive Icon -->
  <g transform="translate(128, 128) scale(1.2)" fill="white">
    <path d="M304 160a16 16 0 1 0-16-16 16 16 0 0 0 16 16zm-192 0a16 16 0 1 0-16-16 16 16 0 0 0 16 16zm192-48H112a48 48 0 0 0-48 48v96a48 48 0 0 0 48 48h192a48 48 0 0 0 48-48v-96a48 48 0 0 0-48-48zm-16 136a24 24 0 1 1 24-24 24 24 0 0 1-24 24zm-160 0a24 24 0 1 1 24-24 24 24 0 0 1-24 24z"/>
  </g>
</svg> 